<?xml version="1.0" encoding="UTF-8"?><svg id="a" xmlns="http://www.w3.org/2000/svg" viewBox="0 0 229.27 403.13"><defs><style>.b{fill:#fff;}</style></defs><path d="M89.06,36.66c-5.49-1.95-6.2-5.31-5.86-10.5,.3-4.6-1-9.31-1.59-13.97-.48,.06-.96,.12-1.45,.18,2.49,11.04,1.84,14.47-3.3,15.62,1.03-9.61-2.86-16.52-11.36-21-.86-.45-1.33-2.43-1.28-3.67,.03-.65,.07-1.3,.11-1.96-1.4-.22-2.57-.71-3.55-1.37-1.25,.52-2.7,.75-4.36,.58-.51-.05-.98-.15-1.44-.26-.45,.02-.9,.02-1.38-.03-.23-.02-.44-.06-.66-.1l.12,.48,4.45,.46,.55,1.11c-2.87,2.18-5.65,4.51-8.64,6.52-3.57,2.4-6.5,5.65-6.04,9.79,.74,6.53,3.31,12.56,9.06,16.62,.93,.66,1.73,1.49,3.56,3.09-9.18,1.2-11.65-5.34-15.24-9.79-1.17-1.45-.71-4.21-.98-6.25-4.99,1.99-2.1-3.61-3.71-5.44-2.41,8.58-.26,15.8,4.91,22.56,1.81,2.37,2.71,5.43,3.81,7.74,2.31-1.72,5.48-4.45,8.99-6.63,7.09-4.4,15.24-3.48,23.07-4.05,6.57-.48,12.51,.81,17.34,5.87,.79,.83,3.29,.67,4.66,.13,1.78-.7,3.23-2.25,4.83-3.43-5.48,2.02-9.86-.61-14.62-2.3Zm-30.84-2.12c-8.59-.75-13.33-10.64-8.44-17.75,1.67-2.43,3.52-4.79,7.11-2.62,.87,.52,2.26,.49,3.33,.29,2.8-.54,6.02-1.79,7.36,1.78,1.24,3.31,2.41,7.1,1.97,10.47-.65,4.98-6.26,8.28-11.33,7.84Z"/><path d="M228.44,364.29c-1.82,5.05-4.11,6.39-9.19,4.86,5.32-2.39,4.15-6.33,2.93-10.11-1.47-4.55-3.34-8.97-4.81-13.52-2.22-6.87-5.25-9.11-12.41-7.78-5.19,.96-10.23,2.74-15.34,4.14-3.82,1.05-7.64,2.06-11.46,3.09-.1-.37-.21-.74-.31-1.12,2.52-1.07,5.04-2.14,7.57-3.2q-10.54,.2-14.05-10.19c-1.31-3.85-1.68-9.1-4.4-11.12-4.22-3.14-3.62-6.58-3.83-10.47-.12-2.23-.54-4.49-1.19-6.63-3.7-12.12-7.53-24.21-11.26-36.32-5.03-16.32-10.12-32.62-14.93-49-.76-2.58-1.1-6.05,.03-8.26,2.54-4.93,1.96-9.27-.13-13.98-1.15-2.6-2.37-5.43-2.43-8.18-.12-5.45-2-10.01-6.06-13.3-3.55-2.87-5.02-6.14-4.65-10.55,.27-3.24,.28-6.49,.43-9.74,.14-3.25,1.51-5.28,4.91-6.3,6.78-2.03,11.49-6.52,12.09-13.76,.36-4.33,2.43-6.73,5.71-8.85,9.53-6.15,16.01-14.53,19.08-25.58,2.9-10.45,1.83-20.08-5.12-28.89,5.26,10.32,4.3,20.48-.19,30.64-4.92,11.12-11.93,17.02-23.76,19.21,2.68-1.74,4.82-2.87,6.62-4.39,1.12-.94,1.73-2.48,2.56-3.76l-1.76-2.09c-2.97,.86-5.95,1.73-9.53,2.76,1.36,1.76,2.02,2.61,2.85,3.69-1.24,.87-2.47,1.73-4.09,2.87,.04-1.37,.07-2.52,.09-3.31-7.14,.19-13.97,.43-20.8,.46-.91,0-1.82-1.05-2.73-1.61,.92-.44,1.97-1.42,2.74-1.23,17.52,4.21,28.61-3.99,36.45-18.62,.11-.2,.57-.21,1.97-.68-1.62,3.82-2.97,7-4.31,10.15,3.61-1.99,8.4-9.13,8.18-12.59-.64-9.95-5.75-17.79-12.08-25.02-.61-.7-1.4-1.4-2.24-1.71-3.59-1.31-7.23-2.46-10.63-3.6-2.68-.1-5.4-.21-8.78-.34-.04,.05-.07,.1-.11,.15-.7,.88-1.43,1.72-2.15,2.58-.39-.93-.71-1.9-1.18-2.8-.52-1.01-.98-2.18-1.8-2.88-2.25-1.9-4.64-3.62-7.04-5.32-.67-.48-1.68-1.04-2.34-.86-.94,.26-1.76,1.11-2.53,1.82-.29,.27-.28,.86-.63,2.07-.76-2.9-1.11-4.23-1.46-5.54-7.7,1.85-8.51,1.55-14.01-5.15-.51,.93-.9,1.64-1.77,3.21-.51-1.88-.77-2.83-.76-2.8-3.19-1.19-5.74-2.73-8.39-2.95-2.86-.24-5.83,.75-8.57,1.17-.56,2.03-1,3.62-1.26,4.58-3.23-.93-5.86-1.69-8.56-2.47,.56,1.47,1.11,2.91,1.79,4.69-1.81-.7-3.17-1.23-4.46-1.73-1.08,2.26-2.2,5.84-2.86,5.75-6.67-.82-5.73,5.24-8.08,8.26-1.26,1.62-2.78,3.27-4.55,4.23-3.72,2.01-5.08,6.64-9.33,8.03-.41,.13-.23,1.83-.46,2.76-1.15,4.59-2.34,9.17-3.55,13.74-.11,.41-.42,.82-.75,1.1-2.29,2.02-4.57,4.05-6.95,5.97-.55,.44-1.46,.64-2.19,.62-3.99-.14-4.81,2.31-4.98,5.61-.07,1.3-.85,3.7-1.23,3.68-4.23-.18-2.25,2.29-1.81,3.98,.34,1.31,.89,2.57,1.36,3.84-1.37,.31-2.77,.63-5.19,1.17-.18-5.54-.36-10.77-.5-15.03-7.67,12.6-3.73,31.63,9.64,42.95,8.47,7.17,18.52,9.7,29.32,10.59,3.01,.25,6.58,1.36,8.68,3.35,5.58,5.3,11.66,7.37,19.17,5.73,1.47-.32,3.39-.29,4.65,.4,6.12,3.34,11.02,14.22,9.35,20.86-1.23,4.89-.39,9.25,1.91,13.62,1.17,2.22,1.91,4.75,2.36,7.23,1.02,5.7,2.98,10.54,8.59,13.37,1.49,.75,2.78,2.7,3.33,4.37,3.13,9.41,6.07,18.87,8.95,28.36,9.99,32.82,19.95,65.64,29.86,98.48,.77,2.54,1.08,5.22,1.84,9.03-3.87-.4-6.74-.5-9.53-1.02h-.06c.17,1.37,.05,2.8-.35,4.14,2.33,.05,2.25,.96,2.68,5.29,.23,2.33,2.14,4.77,3.89,6.57,1.39,1.43,3.67,2.01,5.59,2.91,5.32,2.48,6.85,5.13,6.49,11.5-3.1,0-6.2,.12-9.3,.07,4.06,3.05,7.69,6.61,10.73,10.76,9.93,1.19,19.9,2.1,29.91,2.69,1.97,.12,3.99-.62,6.9-1.12-4.77-1.79-8.28-3.11-12.47-4.69,3.75-1.57,6.5-3.07,9.44-3.85,2.28-.61,4.88-.75,7.21-.35,.57,.1,1.14,.21,1.71,.31,.4-.93,.93-1.8,1.61-2.54-.3-.5-.55-1.03-.74-1.59-.87-.45-1.08-2.86-2.13-5.81,.63,.18,1.25,.35,1.85,.52,.07-.34,.17-.68,.27-1.01-.27-2.54,.42-5.21,1.99-7.19-.53-.11-1.06-.22-1.59-.33,4.33-8.51,7.35-9.73,14.9-6.45,2.35,1.02,4.51,2.53,6.68,3.94,3.36,2.19,6.31,.71,9.04-1.12,2.64-1.77,4.06-4.2,2.22-7.54ZM122.15,123.1c4.08-1.06,8.38-1.29,12.1-1.8,.6,3.73,1.03,6.78,1.59,9.8,.71,3.83-2.12,6.46-7.03,6.62-.41-1.57-.82-3.15-1.29-4.94-1.57,1.03-2.6,1.69-3.91,2.55-.5-.97-.93-1.61-1.18-2.32-.52-1.51-.51-3.51-1.51-4.51-2.73-2.74-1.51-4.68,1.22-5.39ZM52.89,60.85c-3.66,10.33-.68,19.93,3.95,30.12-9.24-5.11-10.89-20.09-3.95-30.12Zm-7.57,34.86c.8-.09,1.63,0,2.44,0,11.86,.21,13.08-1.35,9.72-12.36-2.01-6.6-1.6-12.96,.84-19.52,3.62-9.73,13.06-10.33,20.68-8.3,8.35,2.21,12.6,8.72,14.68,16.77,.24,.94,.34,1.92,.57,2.87,1.6,6.57,6.32,8.43,11.54,4.27,6.65-5.29,13.74-8.11,22.53-7.07,7.99,.94,14.71,5.56,16.54,12.81,1.81,7.18-2.25,15.24-8.76,19.51-6.63,4.35-13.64,5.62-21.33,5.06-6.45-.47-9.36,3.59-7.02,9.61,3.41,8.78,4.05,17.46-1.14,25.75-5.6,8.96-17.1,10-24.8,2.74-5.01-4.73-8.38-10.02-9.68-16.94-1.35-7.24-6.15-8.62-12.16-4.06-9.25,7.01-19.19,9.48-30.12,4.27-6.08-2.89-8.83-8.18-8.08-14.7,2.61-13.7,8.19-19.04,23.56-20.72Zm38.87,63.57c-2.54,.21-12.77-9.48-13.93-11.91-2.01-4.22-4.21-8.41-6.86-12.25-1.8-2.62-4.23-3.01-6.88-.15-1.74,1.88-4.39,2.92-6.63,4.34,1.89-.38,3.78-.77,5.67-1.15,.07,.42,.14,.85,.21,1.27-1.24,.21-2.48,.41-4.67,.78,3.14,1.81,5.41,3.11,8.06,4.63-5.37,5.99-8.41-3.55-12.93-.27-.2-.64-.39-1.28-.59-1.92l3.85-3.07c-6.6,2.38-12.99,1.15-19.34-1.09-1.03-.36-2.75-.87-3.24-.38-4.85,4.76-4.31-.34-5.54-2.74-.49-.96-2.1-1.27-2.94-2.13-2.99-3.06-5.87-6.24-9.5-10.14,.16-1.54,.46-4.43,.76-7.33,1.9-1.5,3.8-3,5.78-4.58,.37,2.1,.81,5,1.38,7.87,3.18,16.02,23.05,24.36,36.84,15.42,2.56-1.66,4.75-3.91,7.36-5.5,1.7-1.03,3.83-1.33,5.77-1.96,.48,1.57,1.28,3.12,1.4,4.71,.98,13.23,14.24,25.57,27.44,24.35,3.69-.34,7.33-3.7,10.52-6.26,2.18-1.74,3.55-4.5,6.28-6.39-.94,2.72-1.88,5.45-2.83,8.17,.29,.1,.58,.21,.86,.31,1.65-3.94,3.3-7.88,4.95-11.82,.59,.12,1.19,.24,1.78,.36-.09,9.87-.18,19.74-.26,29.55-5.39,1.83-6.79,.73-5.86-4.42,.57-3.15-2.54-10.08-5.26-11.11-.83-.32-2.28,.07-3.06,.66-5.59,4.22-12.25,3.62-18.62,4.15Zm26.35,12.63c-6,2.25-12,4.5-18,6.75-.15-.45-.3-.89-.45-1.34,5.41-3.7,9.63-10.51,18.45-5.41Zm-18.03,14.81c-.4-.03-.77-.53-2.05-1.48,1.86-1.99,3.29-4.9,5.4-5.53,7.49-2.25,15.21-3.79,22.86-5.47,4.12-.9,5.97,2.29,6.88,5.16,.55,1.72-.41,4.94-1.81,6.04-2.83,2.2-6.31,3.75-9.75,4.93-2.87,.98-6.04,1.14-9.1,1.47-.99,.11-2.78-.15-2.95-.66-1.64-4.94-5.75-4.21-9.48-4.46Zm19.65,19.93c-.58-.23-1.39-.96-1.61-.8-4.2,3.06-7.78-2.27-12.37-.1,1.13-4.35,3.5-5.63,6.89-5.44,4.76,.27,8.8-.74,13.11-3.45,4.88-3.08,10.21-.9,15.15,3.51-5.61,3.41-9.4,8.95-16.38,8.02-1.64-.22-3.2-1.11-4.78-1.74Zm67.85,185.04c-4.17,2.78-12.87,3.8-15.34,1.69-.53-.45-.8-1.41-.87-2.17-.35-4.19-.75-8.38-.78-12.58,0-1.23,1.17-2.46,.43-3.47-.54-2.17-1.17-4.33-1.59-6.53-1.26-6.48-.65-14.31-4.2-19.06-3.11-4.16,.15-10.23-5.38-12.65-.38-.17-.48-1.86-.15-2.6,1.03-2.31-.64-6.46-3.05-7.28-.53-.18-.95-.72,.16-1.33-.1-2.98-.2-5.95-.31-8.93h-.58c-.27,1.37-.54,2.73-.82,4.08-.47,.06-.94,.11-1.4,.17-1.12-6.38-2.01-12.82-3.47-19.12-.82-3.55-2.61-6.87-3.91-10.32-.46-1.24-3.58-2.5-.05-3.94,.25-.1-.03-2.05-.39-3.02-2.5-6.61-5.1-13.18-7.65-19.77-.43-1.11-1.01-2.22-1.18-3.37-.98-6.66-1.97-13.2-5.94-19.06-1.39-2.05-.96-5.32-1.44-8.56-.39-.33-1.75-1.13-2.54-2.31-.32-.48,.59-1.78,.84-2.44-.34-4.28-1.32-8.76-.71-13.01,.22-1.5,4.26-2.74,6.74-3.4,.62-.16,2.17,2.27,2.93,3.71,1.88,3.54,4.03,7.05,5.2,10.84,1.83,5.93,2.75,12.13,4.43,18.11,1.39,4.93,3.45,9.66,4.98,14.56,.94,3,1.19,6.22,2.19,9.19,5.58,16.62,11.53,33.12,16.87,49.81,3.01,9.41,5.06,19.13,7.59,28.7,1.64,6.18,3.44,12.32,5.02,18.51,.36,1.42,.11,2.99,.13,4.49,1.08,2.6,2.29,5.04,3.1,7.6,.63,1.98,.93,4.11,1.1,6.19,.2,2.42,3.66,4.86,.03,7.28Z"/><path class="b" d="M9.61,115.83c1.93-1.52,3.85-3.05,5.87-4.64,.37,2.1,.81,5,1.38,7.87,3.18,16.02,23.05,24.36,36.84,15.42,2.56-1.66,4.75-3.91,7.36-5.5,1.7-1.03,3.83-1.33,5.77-1.96,.48,1.57,1.28,3.12,1.4,4.71,.98,13.23,14.24,25.57,27.44,24.35,3.69-.34,7.33-3.7,10.52-6.26,2.18-1.74,3.55-4.5,6.28-6.39-.94,2.72-1.88,5.45-2.82,8.17l.86,.31c1.65-3.94,3.3-7.88,4.95-11.82l1.78,.36c-.09,9.87-.18,19.74-.26,29.55-5.39,1.83-6.79,.73-5.86-4.42,.57-3.15-2.54-10.09-5.26-11.11-.83-.32-2.28,.07-3.06,.66-5.59,4.22-12.25,3.62-18.62,4.15-2.54,.21-12.77-9.48-13.93-11.91-2.01-4.22-4.21-8.41-6.86-12.25-1.8-2.62-4.23-3.01-6.88-.15-1.74,1.88-4.39,2.92-6.63,4.34-.11,.07-.24,.17-.4,.28-6.6,2.38-12.99,1.15-19.34-1.09-1.03-.36-2.75-.87-3.24-.38-4.85,4.76-4.31-.34-5.54-2.74-.49-.96-2.1-1.27-2.94-2.13-2.99-3.06-5.87-6.24-9.5-10.14,.16-1.56,.46-4.47,.76-7.39l-.09,.13Z"/><path d="M15.12,84.72c7.94-2.85,7.08-9.44,6.69-16.17,2.14,1.72,3.51,2.81,4.88,3.92,2.86,2.32,1.98,6.28-1.42,7.93-3.1,1.5-5.94,3.55-8.89,5.35l-1.26-1.04Z"/><path d="M116.77,42.91c4.98,9.68,14.64,7.54,21.3,9.88-4.96,.21-10.68,.59-16.4,.65-3,.03-5.23-4.52-4.9-10.52Z"/><path d="M144.86,111.25c-.59-.7-1.17-1.39-1.76-2.09,.83-1.73,1.67-3.46,2.5-5.19l-.18-.15c.94,.78,1.88,1.57,2.82,2.35,1.04,2.15,.56,4.82-3.39,5.09Z"/><path d="M41.04,53.82c-2.1,7.81-3.75,9.05-10.46,7.53,3.49-2.51,7.1-5.11,10.46-7.53Z"/><path class="b" d="M58.22,34.55c-8.59-.75-13.33-10.64-8.44-17.75,1.67-2.43,3.52-4.79,7.11-2.62,.87,.52,2.26,.49,3.33,.29,2.8-.54,6.02-1.79,7.36,1.78,1.24,3.31,2.41,7.1,1.97,10.47-.65,4.98-6.26,8.28-11.33,7.84Z"/><path class="b" d="M21.76,116.42c2.61-13.7,8.19-19.04,23.56-20.72,.8-.09,1.63,0,2.44,0,11.86,.21,13.08-1.35,9.72-12.36-2.01-6.6-1.6-12.96,.84-19.52,3.62-9.73,13.06-10.33,20.68-8.3,8.35,2.21,12.6,8.72,14.68,16.77,.24,.94,.34,1.92,.57,2.87,1.6,6.57,6.32,8.43,11.54,4.27,6.65-5.29,13.74-8.11,22.53-7.07,7.99,.94,14.71,5.56,16.54,12.81,1.81,7.18-2.25,15.24-8.76,19.51-6.63,4.35-13.64,5.62-21.33,5.06-6.45-.47-9.36,3.59-7.02,9.61,3.41,8.78,4.05,17.46-1.14,25.75-5.6,8.96-17.1,10-24.8,2.74-5.01-4.73-8.38-10.02-9.68-16.94-1.35-7.24-6.15-8.62-12.16-4.06-9.25,7.01-19.19,9.48-30.12,4.27-6.08-2.89-8.83-8.18-8.08-14.7Z"/><path class="b" d="M175.77,370.61c1.08,2.6,2.29,5.04,3.1,7.6,.63,1.98,.93,4.11,1.1,6.19,.2,2.42,3.66,4.86,.03,7.28-4.17,2.78-12.87,3.8-15.34,1.69-.53-.45-.8-1.41-.87-2.17-.35-4.19-.75-8.38-.78-12.58,0-1.23,1.17-2.46,.43-3.47-.54-2.17-1.17-4.33-1.59-6.53-1.26-6.48-.65-14.31-4.2-19.06-3.11-4.16,.15-10.23-5.38-12.65-.38-.17-.48-1.86-.15-2.6,1.03-2.31-.64-6.46-3.05-7.28-.53-.18-.95-.72,.16-1.33l-.31-8.93h-.58c-.27,1.37-.54,2.73-.82,4.08-.47,.06-.94,.11-1.4,.17-1.12-6.38-2.01-12.82-3.47-19.12-.82-3.55-2.61-6.87-3.91-10.32-.46-1.24-3.58-2.5-.05-3.94,.25-.1-.03-2.05-.39-3.02-2.5-6.61-5.1-13.18-7.65-19.77-.43-1.11-1.01-2.22-1.18-3.37-.98-6.66-1.97-13.2-5.94-19.06-1.39-2.05-.96-5.32-1.44-8.56-.39-.33-1.75-1.13-2.54-2.31-.32-.48,.59-1.78,.84-2.44-.34-4.28-1.32-8.76-.71-13.01,.22-1.5,4.26-2.74,6.74-3.4,.62-.16,2.17,2.27,2.93,3.71,1.88,3.54,4.03,7.05,5.2,10.84,1.83,5.93,2.75,12.13,4.43,18.11,1.39,4.93,3.45,9.66,4.98,14.56,.94,3,1.19,6.22,2.19,9.19,5.58,16.62,11.53,33.12,16.87,49.81,3.01,9.41,5.06,19.13,7.59,28.7,1.64,6.18,3.44,12.32,5.02,18.51,.36,1.42,.11,2.99,.13,4.49Z"/><path class="b" d="M90.45,185.24c1.86-1.99,3.29-4.9,5.4-5.53,7.49-2.25,15.21-3.79,22.86-5.47,4.12-.9,5.97,2.29,6.88,5.16,.55,1.72-.41,4.94-1.81,6.04-2.83,2.2-6.31,3.75-9.75,4.93-2.87,.98-6.04,1.14-9.1,1.47-.99,.11-2.78-.15-2.95-.66-1.64-4.94-5.75-4.21-9.48-4.46-.4-.03-.77-.53-2.05-1.48Z"/><path class="b" d="M133.31,200.37c-5.61,3.41-9.4,8.95-16.38,8.02-1.64-.22-3.2-1.11-4.78-1.74-.58-.23-1.39-.96-1.61-.8-4.2,3.06-7.78-2.27-12.37-.1,1.13-4.35,3.5-5.63,6.89-5.44,4.76,.27,8.8-.74,13.11-3.45,4.88-3.08,10.21-.9,15.15,3.51Z"/><path class="b" d="M128.8,137.72c-.41-1.57-.82-3.15-1.29-4.94-1.57,1.03-2.6,1.69-3.91,2.55-.5-.97-.93-1.61-1.18-2.32-.52-1.51-.51-3.51-1.51-4.51-2.73-2.74-1.51-4.68,1.22-5.39,4.08-1.06,8.38-1.29,12.1-1.8,.6,3.73,1.03,6.78,1.59,9.8,.71,3.83-2.12,6.46-7.03,6.62Z"/><path class="b" d="M145.6,103.97c-.83,1.73-1.67,3.46-2.5,5.19-2.97,.86-5.95,1.73-9.53,2.76,1.36,1.76,2.02,2.61,2.85,3.69l-4.09,2.87,.09-3.31c-7.14,.19-13.97,.43-20.8,.46-.91,0-1.82-1.05-2.73-1.61,.92-.44,1.97-1.42,2.74-1.23,17.52,4.21,28.61-3.99,36.45-18.62,.11-.2,.57-.21,1.97-.68-1.68,3.95-3.06,7.22-4.45,10.48Z"/><path class="b" d="M52.89,60.85c-3.66,10.33-.68,19.93,3.95,30.12-9.24-5.11-10.89-20.09-3.95-30.12Z"/><path class="b" d="M213.27,375.21c-.61-.1-1.24-.21-1.89-.32,1.35,2.83,1.81,5.21,2.72,5.56-.74-1.61-1.01-3.45-.83-5.24Z"/><path class="b" d="M92.09,177.31c5.41-3.7,9.63-10.51,18.45-5.41-6,2.25-12,4.5-18,6.75l-.45-1.34Z"/><path class="b" d="M49.49,139.58c.15-.11,.29-.2,.4-.28,1.89-.38,3.78-.77,5.67-1.15l.21,1.27c-1.24,.21-2.48,.41-4.67,.78,3.14,1.81,5.41,3.11,8.06,4.63-5.37,5.99-8.41-3.55-12.93-.27l-.59-1.92c1.28-1.02,2.56-2.05,3.85-3.07Z"/><path class="b" d="M214.1,361.83l-8.51-15.79-23.94,7.89,5.79,20.95s6.76-24.9,26.66-13.06Z"/></svg>